<svg xmlns="http://www.w3.org/2000/svg" viewBox="0 0 107.75 26.07"><defs><style>.cls-1{fill:#fff;}.cls-2{fill:#a3a3a3;}</style></defs><title>Asset 6</title><g id="Layer_2" data-name="Layer 2"><g id="Layer_1-2" data-name="Layer 1"><path class="cls-1" d="M0,7.88A7.27,7.27,0,0,1,.6,4.94a7.68,7.68,0,0,1,4-4A7.27,7.27,0,0,1,7.56.32H19.13v5H7.56A2.49,2.49,0,0,0,5,7.88a2.56,2.56,0,0,0,.19,1,2.46,2.46,0,0,0,1.34,1.34,2.5,2.5,0,0,0,1,.19h5a7.42,7.42,0,0,1,2.94.59,7.52,7.52,0,0,1,4,4,7.63,7.63,0,0,1,0,5.88A7.6,7.6,0,0,1,18,23.3a7.69,7.69,0,0,1-2.41,1.63,7.33,7.33,0,0,1-2.94.6H1.41v-5H12.6a2.51,2.51,0,1,0,0-5h-5a7.27,7.27,0,0,1-2.94-.6,7.66,7.66,0,0,1-4-4A7.33,7.33,0,0,1,0,7.88Z"/><path class="cls-1" d="M49.16,13a12.73,12.73,0,0,1-.47,3.45,13.3,13.3,0,0,1-1.31,3.11,12.91,12.91,0,0,1-2,2.65,13.27,13.27,0,0,1-2.64,2,12.91,12.91,0,0,1-6.57,1.78,12.73,12.73,0,0,1-3.45-.47,13.13,13.13,0,0,1-9.12-9.12,13.07,13.07,0,0,1,0-6.92,12.88,12.88,0,0,1,1.32-3.11,13.27,13.27,0,0,1,2-2.64,12.89,12.89,0,0,1,2.65-2A13.3,13.3,0,0,1,32.68.47a13.07,13.07,0,0,1,6.92,0,13,13,0,0,1,9.1,9.1A12.83,12.83,0,0,1,49.16,13Zm-5,0a7.8,7.8,0,0,0-.63-3.12,8,8,0,0,0-4.26-4.26,8,8,0,0,0-6.25,0,8.23,8.23,0,0,0-2.55,1.71,8,8,0,0,0-1.72,2.55A7.8,7.8,0,0,0,28.1,13a7.67,7.67,0,0,0,.63,3.1A8.12,8.12,0,0,0,33,20.39a8,8,0,0,0,6.25,0,8,8,0,0,0,2.55-1.72,8.26,8.26,0,0,0,1.71-2.54A7.67,7.67,0,0,0,44.15,13Z"/><path class="cls-1" d="M103.65,13.13a12.43,12.43,0,0,1-1.72,6.35A13,13,0,0,1,100,22a12.51,12.51,0,0,1-8.91,3.7H83.46V.52h7.59A12.42,12.42,0,0,1,94.4,1,12.54,12.54,0,0,1,100,4.23a13,13,0,0,1,2,2.55,12.43,12.43,0,0,1,1.72,6.35Zm-5,0A7.36,7.36,0,0,0,98,10.19a7.6,7.6,0,0,0-1.62-2.4A7.69,7.69,0,0,0,94,6.17a7.33,7.33,0,0,0-2.94-.6H88.54V20.69h2.51A7.42,7.42,0,0,0,94,20.1a7.52,7.52,0,0,0,4-4A7.42,7.42,0,0,0,98.61,13.13Z"/><polygon class="cls-2" points="66.12 0.43 66.12 5.48 73.72 5.48 73.72 25.64 78.77 25.64 78.77 0.43 66.12 0.43"/><polygon class="cls-1" points="66.12 20.48 58.51 20.48 58.51 0.32 53.47 0.32 53.47 25.52 66.12 25.52 66.12 20.48"/><circle class="cls-2" cx="105.13" cy="23.18" r="2.62"/></g></g></svg>